<?xml version="1.0" encoding="UTF-8"?>
<svg version="1.1" xmlns="http://www.w3.org/2000/svg" width="500" height="500">
<path d="M0 0 C165 0 330 0 500 0 C500 165 500 330 500 500 C335 500 170 500 0 500 C0 335 0 170 0 0 Z " fill="#040505" transform="translate(0,0)"/>
<path d="M0 0 C49.17 0 98.34 0 149 0 C149 108.24 149 216.48 149 328 C136.13 332.62 123.26 337.24 110 342 C102.11640767 344.89569988 94.23451709 347.79333624 86.36053467 350.71463013 C62.58090359 359.53181896 38.74033824 368.17149985 14.86101151 376.7145319 C11.53602735 377.90412615 8.2112931 379.09441724 4.88671875 380.28515625 C4.2317189 380.51972219 3.57671906 380.75428814 2.90187073 380.99596214 C-6.47435617 384.35561321 -15.8331088 387.7605512 -25.1796875 391.20179558 C-27.14379652 391.92469703 -29.10832038 392.64645868 -31.07299805 393.36781311 C-37.19791674 395.61705808 -43.3197237 397.8741658 -49.43603516 400.14672852 C-51.59911953 400.94201609 -53.76235904 401.73688189 -55.92578125 402.53125 C-56.90999557 402.90080307 -57.8942099 403.27035614 -58.9082489 403.65110779 C-59.8051796 403.978293 -60.70211029 404.30547821 -61.6262207 404.64257812 C-62.40359085 404.93072388 -63.180961 405.21886963 -63.98188782 405.51574707 C-66 406 -66 406 -69 405 C-70.02342224 403.04794312 -70.02342224 403.04794312 -70.95092773 400.43505859 C-71.30738876 399.44923798 -71.66384979 398.46341736 -72.03111267 397.44772339 C-72.41143143 396.35895905 -72.79175018 395.2701947 -73.18359375 394.1484375 C-73.5907814 393.01286407 -73.99796906 391.87729065 -74.41749573 390.70730591 C-75.3022112 388.23535492 -76.18256079 385.76232205 -77.0559082 383.28637695 C-78.45089211 379.33195959 -79.86172887 375.38331934 -81.27539062 371.43554688 C-82.73963096 367.34426516 -84.20282938 363.25262723 -85.66049194 359.15899658 C-89.97785109 347.03492649 -94.36815949 334.9380535 -98.77902222 322.84768677 C-100.83775234 317.20304385 -102.89171267 311.5566673 -104.9453125 305.91015625 C-105.35577316 304.7816777 -105.76623383 303.65319916 -106.18913269 302.49052429 C-109.27770097 293.99541035 -112.35582243 285.49653635 -115.4296875 276.99609375 C-115.88623513 275.73369329 -116.34278319 274.47129298 -116.79933167 273.20889282 C-118.60187256 268.22443096 -120.40427322 263.23991856 -122.2059021 258.25512695 C-126.5822035 246.14873827 -130.96757382 234.04628573 -135.43359375 221.97265625 C-135.77042175 221.06176743 -136.10724976 220.1508786 -136.45428467 219.21238708 C-137.99440323 215.05087685 -139.53923698 210.89119765 -141.09130859 206.73413086 C-141.61949562 205.31234819 -142.14765512 203.89055529 -142.67578125 202.46875 C-143.12864502 201.25638672 -143.58150879 200.04402344 -144.0480957 198.79492188 C-145 196 -145 196 -145 194 C-138.93811294 191.78998219 -132.87552196 189.58190237 -126.8125 187.375 C-125.85639832 187.02697327 -124.90029663 186.67894653 -123.91522217 186.32037354 C-111.22813209 181.70368894 -98.53434963 177.10585454 -85.83203125 172.53125 C-84.86867859 172.18429455 -84.86867859 172.18429455 -83.88586426 171.8303299 C-80.61659503 170.65293439 -77.34727336 169.47568458 -74.07794189 168.29846191 C-56.01182402 161.79297497 -37.94775757 155.2840392 -19.9375 148.625 C-18.48478904 148.08819682 -17.03207101 147.55141279 -15.5793457 147.01464844 C-14.86218887 146.74964539 -14.14503204 146.48464233 -13.40614319 146.21160889 C-12.68688156 145.94584045 -11.96761993 145.68007202 -11.2265625 145.40625 C-10.50863022 145.14096497 -9.79069794 144.87567993 -9.05101013 144.60235596 C0.35301091 141.12888834 9.76190575 137.66883305 19.17745972 134.22674561 C21.16909495 133.49776022 23.16009357 132.76703299 25.15042114 132.03448486 C27.90463449 131.02105767 30.66099435 130.0136997 33.41796875 129.0078125 C34.24410675 128.70234497 35.07024475 128.39687744 35.92141724 128.08215332 C41.65768119 126 41.65768119 126 45 126 C42.02208286 117.70760583 39.04022758 109.41663164 36.05561829 101.12664413 C35.56176747 99.75488504 35.06798246 98.38310225 34.57426453 97.01129532 C28.75123442 80.83267137 22.89869738 64.66591752 16.93359375 48.5390625 C16.69164591 47.88459829 16.44969807 47.23013409 16.20041847 46.55583763 C13.65130791 39.66120559 11.09464781 32.76944099 8.52856445 25.88110352 C7.6908444 23.62258588 6.85319409 21.36404238 6.015625 19.10546875 C5.63639389 18.09348419 5.25716278 17.08149963 4.86643982 16.03884888 C4.34135582 14.62005936 4.34135582 14.62005936 3.80566406 13.17260742 C3.50339905 12.36176193 3.20113403 11.55091644 2.88970947 10.71549988 C1.73787095 7.19995076 0.89724472 3.5889789 0 0 Z " fill="#00FE40" transform="translate(351,0)"/>
<path d="M0 0 C115.5 0 231 0 350 0 C347.22313951 1.85124032 344.95550328 2.85740403 341.84423828 3.98925781 C340.7776297 4.37944595 339.71102112 4.76963409 338.61209106 5.17164612 C337.44330414 5.59453415 336.27451721 6.01742218 335.0703125 6.453125 C333.22879105 7.1246183 333.22879105 7.1246183 331.35006714 7.80967712 C327.98214958 9.03751128 324.6123897 10.26021438 321.24224854 11.48192978 C318.40069929 12.51275319 315.56024488 13.54657462 312.71979141 14.58041286 C290.28804827 22.74450556 267.83324008 30.84482527 245.37451172 38.93432617 C228.65851269 44.95553967 211.94863103 50.99326502 195.25 57.0625 C194.13108368 57.46911865 193.01216736 57.8757373 191.85934448 58.29467773 C179.08838984 62.93794948 166.32803855 67.60897141 153.58203125 72.3203125 C152.38116882 72.76417297 151.1803064 73.20803345 149.9430542 73.66534424 C147.5201974 74.56098031 145.09734583 75.45663052 142.67449951 76.35229492 C141.48253967 76.7929126 140.29057983 77.23353027 139.0625 77.6875 C137.88375305 78.12328369 136.7050061 78.55906738 135.49053955 79.00805664 C113.71606427 87.05249787 91.86315601 94.86315135 69.95829773 102.54490662 C64.57069809 104.43653914 59.20238476 106.37292848 53.85888672 108.38647461 C52 109 52 109 50 109 C50.46913818 110.13260254 50.46913818 110.13260254 50.94775391 111.28808594 C55.94768746 123.56270543 60.46900837 136.01060025 64.99755859 148.46533203 C66.15600353 151.65121029 67.32114976 154.8345951 68.48784447 158.01745987 C69.60818395 161.07777943 70.72164387 164.14059993 71.8359375 167.203125 C72.25459076 168.34364319 72.67324402 169.48416138 73.10458374 170.65924072 C73.48563263 171.71174011 73.86668152 172.7642395 74.25927734 173.84863281 C74.59647797 174.773797 74.93367859 175.69896118 75.28109741 176.65216064 C76 179 76 179 76 182 C67.97582879 184.92982913 59.95162899 187.85957994 51.92739391 190.78923416 C48.20036151 192.14997918 44.4733385 193.51074994 40.74633789 194.87158203 C37.14128689 196.18788579 33.53621002 197.50411865 29.9311161 198.82030487 C28.56419285 199.31936939 27.19727851 199.81845833 25.83037376 200.31757355 C25.17738115 200.55600731 24.52438854 200.79444107 23.85160828 201.0401001 C23.21326711 201.27321774 22.57492594 201.50633537 21.9172411 201.74651718 C20.08546014 202.41505283 18.25323164 203.08236181 16.42098999 203.74963379 C14.17919957 204.5690045 11.93954068 205.39423622 9.70230103 206.22595215 C8.71039764 206.59321411 7.71849426 206.96047607 6.6965332 207.33886719 C5.83284622 207.66119324 4.96915924 207.98351929 4.07929993 208.31561279 C2 209 2 209 0 209 C0 140.03 0 71.06 0 0 Z " fill="#00FE40" transform="translate(0,0)"/>
<path d="M0 0 C1.74177437 2.61266156 2.71994757 4.65116654 3.78979492 7.55737305 C4.13676926 8.49433517 4.48374359 9.4312973 4.8412323 10.39665222 C5.21718033 11.42462418 5.59312836 12.45259613 5.98046875 13.51171875 C6.38086868 14.59765823 6.78126862 15.68359772 7.19380188 16.80244446 C8.29716529 19.79881512 9.39671886 22.79654884 10.49429321 25.79504395 C11.19094338 27.69690045 11.88915607 29.59817596 12.58789062 31.49926758 C20.47459474 52.95893063 28.22503017 74.46677145 35.92907715 95.99258423 C41.2649406 110.90080004 46.63638478 125.79423876 52.12109375 140.6484375 C52.36870579 141.31919563 52.61631783 141.98995377 52.87143326 142.6810379 C55.02269501 148.50685691 57.17686098 154.33159067 59.34179688 160.15234375 C60.22665938 162.53144322 61.11043288 164.9109481 61.99293518 167.29092407 C62.78761572 169.43386924 63.58494863 171.57583331 64.38536072 173.71664429 C64.73248611 174.65368195 65.07961151 175.5907196 65.43725586 176.55615234 C65.89279091 177.77883316 65.89279091 177.77883316 66.35752869 179.0262146 C67 181 67 181 67 183 C73.87594845 180.56517016 80.75079889 178.12725858 87.625 175.6875 C88.6427652 175.32640137 89.6605304 174.96530273 90.70913696 174.59326172 C104.98795967 169.52476815 119.2431358 164.39985677 133.43798828 159.1003418 C134.55544434 158.6856665 135.67290039 158.27099121 136.82421875 157.84375 C137.78416748 157.48474609 138.74411621 157.12574219 139.7331543 156.75585938 C142 156 142 156 144 156 C150.08820592 172.09588052 156.01875441 188.24437388 161.85598755 204.43283081 C164.14244397 210.77297726 166.43388342 217.11132019 168.7265625 223.44921875 C168.95332483 224.07615946 169.18008717 224.70310017 169.41372108 225.34903908 C174.39620336 239.12121115 179.44553261 252.86825654 184.52760315 266.60394287 C185.02082977 267.93761286 185.51356167 269.27146595 186.00572205 270.60552979 C187.07924263 273.51544115 188.15927342 276.42247475 189.25341797 279.32470703 C189.62225098 280.31196777 189.99108398 281.29922852 190.37109375 282.31640625 C190.68876709 283.1576001 191.00644043 283.99879395 191.33374023 284.86547852 C192 287 192 287 192 290 C128.64 290 65.28 290 0 290 C0 194.3 0 98.6 0 0 Z " fill="#00FE40" transform="translate(0,210)"/>
</svg>
